<svg data-v-0c17ff48="" width="111" height="50" viewBox="0 0 140 64" fill="none" xmlns="http://www.w3.org/2000/svg" class="text-white"><g data-v-0c17ff48="" fill="currentColor"><path data-v-0c17ff48="" d="M80.7406 17.3282C80.4216 16.894 80.0047 16.549 79.4898 16.2932C78.975 16.0373 78.4782 15.9094 77.9996 15.9094C77.7531 15.9094 77.5028 15.9326 77.2491 15.9792C76.9953 16.0257 76.7669 16.1149 76.5638 16.2467C76.3608 16.3785 76.1904 16.549 76.0525 16.7584C75.9148 16.9676 75.8459 17.2351 75.8459 17.5608C75.8459 17.8399 75.9003 18.0725 76.0091 18.2585C76.1178 18.4445 76.2774 18.6074 76.4876 18.747C76.6979 18.8865 76.9481 19.0144 77.2382 19.1307C77.5282 19.247 77.8546 19.3672 78.2171 19.4913C78.7392 19.6773 79.2831 19.8828 79.8488 20.1076C80.4143 20.3324 80.9292 20.6309 81.3933 21.003C81.8573 21.3752 82.2418 21.8365 82.5462 22.387C82.8508 22.9374 83.0031 23.6235 83.0031 24.4454C83.0031 25.3912 82.84 26.2091 82.5137 26.8992C82.1873 27.5892 81.7486 28.159 81.1974 28.6087C80.6464 29.0583 80.0155 29.3917 79.3048 29.6087C78.5942 29.8259 77.8618 29.9344 77.1077 29.9344C76.0055 29.9344 74.9394 29.7289 73.9098 29.318C72.8801 28.9071 72.0244 28.3217 71.3427 27.5619L73.7792 24.9105C74.1563 25.4067 74.653 25.8215 75.2694 26.1549C75.8858 26.4882 76.4985 26.655 77.1077 26.655C77.3833 26.655 77.6515 26.6239 77.9126 26.5619C78.1736 26.4998 78.4021 26.3991 78.5979 26.2596C78.7936 26.1199 78.9495 25.9339 79.0655 25.7013C79.1816 25.4688 79.2396 25.1896 79.2396 24.864C79.2396 24.5538 79.1671 24.2902 79.022 24.0732C78.877 23.8561 78.6704 23.6585 78.4021 23.4801C78.1337 23.3018 77.8002 23.139 77.4013 22.9916C77.0025 22.8443 76.5493 22.6854 76.0417 22.5149C75.5486 22.3442 75.0663 22.1427 74.595 21.9101C74.1237 21.6775 73.703 21.3791 73.3332 21.0146C72.9634 20.6502 72.6661 20.2084 72.4414 19.6889C72.2165 19.1695 72.1041 18.5376 72.1041 17.7934C72.1041 16.8784 72.2782 16.0954 72.6263 15.4443C72.9743 14.7929 73.4311 14.258 73.9968 13.8393C74.5623 13.4207 75.2005 13.1145 75.9111 12.9206C76.6218 12.7269 77.3397 12.6299 78.0648 12.6299C78.935 12.6299 79.8233 12.8005 80.7298 13.1416C81.6362 13.4827 82.4302 13.9866 83.1119 14.6535L80.7406 17.3282Z"></path> <path data-v-0c17ff48="" d="M95.1203 29.5154H91.4002L85.5701 13.0482H89.747L93.3147 24.7241H93.4017L96.9476 13.0482H101.059L95.1203 29.5154Z"></path> <path data-v-0c17ff48="" d="M117.919 28.5152C117.165 28.934 116.284 29.275 115.276 29.5386C114.268 29.8022 113.169 29.934 111.98 29.934C110.747 29.934 109.612 29.7247 108.576 29.306C107.539 28.8874 106.647 28.2982 105.9 27.5384C105.153 26.7786 104.569 25.8676 104.149 24.8055C103.728 23.7434 103.518 22.5611 103.518 21.2586C103.518 19.9406 103.732 18.7466 104.159 17.6767C104.587 16.6068 105.178 15.6958 105.932 14.9438C106.686 14.1917 107.571 13.6142 108.586 13.211C109.602 12.8079 110.696 12.6063 111.871 12.6063C113.089 12.6063 114.221 12.804 115.265 13.1994C116.309 13.5948 117.158 14.1259 117.81 14.7926L115.461 17.6534C115.098 17.2037 114.62 16.8355 114.025 16.5486C113.43 16.2618 112.756 16.1183 112.002 16.1183C111.349 16.1183 110.747 16.2463 110.196 16.5021C109.645 16.758 109.166 17.1146 108.76 17.572C108.354 18.0295 108.039 18.5722 107.814 19.2002C107.589 19.8282 107.477 20.5143 107.477 21.2586C107.477 22.0184 107.578 22.7161 107.781 23.3519C107.984 23.9876 108.285 24.5342 108.684 24.9915C109.083 25.449 109.576 25.8057 110.164 26.0615C110.751 26.3174 111.422 26.4453 112.176 26.4453C112.611 26.4453 113.024 26.4103 113.416 26.3406C113.807 26.2708 114.17 26.1583 114.504 26.0033V23.0029H111.567V19.7932H117.919V28.5152Z"></path> <path data-v-0c17ff48="" d="M74.6277 48.312H82.8725V49.8005H73.0613V33.3333H82.6116V34.8219H74.6277V40.497H82.0894V41.9623H74.6277V48.312Z"></path> <path data-v-0c17ff48="" d="M88.681 44.1713L84.9175 38.9149H86.8101L89.5946 43.0549L92.3792 38.9149H94.163L90.4649 44.1016L94.5111 49.8H92.5968L89.5729 45.2645L86.462 49.8H84.6781L88.681 44.1713Z"></path> <path data-v-0c17ff48="" d="M98.7317 55.382H97.2523V38.9149H98.7317V40.7988H98.7969C99.2175 40.0854 99.7794 39.5466 100.483 39.1822C101.186 38.8179 101.9 38.6357 102.626 38.6357C103.423 38.6357 104.145 38.7831 104.79 39.0776C105.436 39.3722 105.987 39.7754 106.444 40.2871C106.9 40.7988 107.256 41.4035 107.51 42.1012C107.763 42.799 107.89 43.551 107.89 44.3573C107.89 45.1636 107.763 45.9156 107.51 46.6135C107.256 47.3112 106.9 47.916 106.444 48.4277C105.987 48.9394 105.436 49.3425 104.79 49.6371C104.145 49.9317 103.423 50.079 102.626 50.079C101.9 50.079 101.186 49.8968 100.483 49.5324C99.7794 49.168 99.2175 48.6447 98.7969 47.9624H98.7317V55.382ZM106.324 44.3573C106.324 43.7526 106.237 43.1827 106.063 42.6478C105.889 42.1129 105.639 41.6478 105.312 41.2524C104.986 40.8569 104.584 40.5429 104.105 40.3103C103.626 40.0777 103.082 39.9615 102.473 39.9615C101.908 39.9615 101.386 40.0738 100.907 40.2987C100.428 40.5235 100.015 40.8336 99.667 41.229C99.319 41.6244 99.0471 42.0896 98.8512 42.6246C98.6555 43.1595 98.5576 43.7372 98.5576 44.3573C98.5576 44.9776 98.6555 45.5551 98.8512 46.0902C99.0471 46.6251 99.319 47.0863 99.667 47.474C100.015 47.8616 100.428 48.1678 100.907 48.3927C101.386 48.6176 101.908 48.73 102.473 48.73C103.082 48.73 103.626 48.6176 104.105 48.3927C104.584 48.1678 104.986 47.8578 105.312 47.4624C105.639 47.067 105.889 46.6019 106.063 46.0668C106.237 45.5319 106.324 44.9621 106.324 44.3573Z"></path> <path data-v-0c17ff48="" d="M121.617 44.3573C121.617 45.1792 121.483 45.9389 121.215 46.6367C120.946 47.3344 120.573 47.9392 120.094 48.4509C119.616 48.9626 119.043 49.3619 118.376 49.6487C117.709 49.9355 116.976 50.079 116.179 50.079C115.396 50.079 114.67 49.9355 114.003 49.6487C113.336 49.3619 112.763 48.9626 112.285 48.4509C111.806 47.9392 111.433 47.3344 111.164 46.6367C110.896 45.9389 110.762 45.1792 110.762 44.3573C110.762 43.5355 110.896 42.7757 111.164 42.078C111.433 41.3802 111.806 40.7755 112.285 40.2638C112.763 39.7521 113.336 39.3529 114.003 39.066C114.67 38.7791 115.396 38.6357 116.179 38.6357C116.976 38.6357 117.709 38.7791 118.376 39.066C119.043 39.3529 119.616 39.7521 120.094 40.2638C120.573 40.7755 120.946 41.3802 121.215 42.078C121.483 42.7757 121.617 43.5355 121.617 44.3573ZM120.051 44.3573C120.051 43.7526 119.96 43.1827 119.779 42.6478C119.598 42.1129 119.34 41.6478 119.007 41.2524C118.673 40.8569 118.267 40.5429 117.788 40.3103C117.31 40.0777 116.773 39.9615 116.179 39.9615C115.584 39.9615 115.051 40.0777 114.58 40.3103C114.108 40.5429 113.706 40.8569 113.372 41.2524C113.039 41.6478 112.781 42.1129 112.6 42.6478C112.419 43.1827 112.328 43.7526 112.328 44.3573C112.328 44.9621 112.419 45.5319 112.6 46.0668C112.781 46.6019 113.039 47.067 113.372 47.4624C113.706 47.8578 114.108 48.1678 114.58 48.3927C115.051 48.6176 115.584 48.73 116.179 48.73C116.773 48.73 117.31 48.6176 117.788 48.3927C118.267 48.1678 118.673 47.8578 119.007 47.4624C119.34 47.067 119.598 46.6019 119.779 46.0668C119.96 45.5319 120.051 44.9621 120.051 44.3573Z"></path> <path data-v-0c17ff48="" d="M125.228 41.3105C125.228 41.0159 125.221 40.636 125.207 40.1708C125.192 39.7055 125.17 39.2869 125.141 38.9149H126.556C126.585 39.2094 126.606 39.535 126.621 39.8917C126.635 40.2483 126.643 40.5429 126.643 40.7755H126.686C126.976 40.1398 127.411 39.6242 127.991 39.2288C128.571 38.8334 129.224 38.6357 129.949 38.6357C130.138 38.6357 130.308 38.6434 130.46 38.6589C130.613 38.6745 130.769 38.7055 130.928 38.752L130.732 40.2406C130.645 40.2095 130.5 40.1785 130.297 40.1475C130.094 40.1165 129.891 40.1009 129.688 40.1009C129.297 40.1009 128.92 40.1785 128.557 40.3335C128.194 40.4887 127.879 40.7328 127.611 41.0662C127.342 41.3995 127.125 41.826 126.958 42.3455C126.791 42.8649 126.708 43.4891 126.708 44.2178V49.7999H125.228V41.3105Z"></path> <path data-v-0c17ff48="" d="M140 40.2415H137.128V46.591C137.128 46.9942 137.165 47.3276 137.237 47.5912C137.31 47.8548 137.415 48.0603 137.553 48.2076C137.69 48.3549 137.854 48.4557 138.042 48.5099C138.231 48.5641 138.434 48.5912 138.651 48.5912C138.854 48.5912 139.068 48.5603 139.293 48.4983C139.518 48.4362 139.732 48.351 139.935 48.2424L140 49.6146C139.739 49.7232 139.467 49.8046 139.184 49.8589C138.901 49.9132 138.593 49.9403 138.26 49.9403C137.984 49.9403 137.694 49.9016 137.389 49.824C137.085 49.7464 136.802 49.5991 136.541 49.3821C136.28 49.165 136.066 48.8704 135.899 48.4983C135.733 48.1261 135.649 47.6377 135.649 47.033V40.2415H133.539V38.9157H135.649V35.8456H137.128V38.9157H140V40.2415Z"></path> <path data-v-0c17ff48="" fill-rule="evenodd" clip-rule="evenodd" d="M56.7567 0C60.2373 0 63.063 2.82573 63.063 6.3063V56.7567C63.063 60.2373 60.2373 63.063 56.7567 63.063H6.3063C2.82573 63.063 0 60.2373 0 56.7567V6.3063C0 2.82573 2.82573 0 6.3063 0H56.7567ZM40.7975 14.3351C40.5716 14.3351 40.3703 14.4738 40.2886 14.6835L31.7734 36.8818L28.0557 46.5753C27.9988 46.7196 27.8652 47.0407 27.5525 46.9265L27.8652 47.7102C28.1131 48.3306 28.7145 48.7364 29.3813 48.7364H33.2565C33.9178 48.7364 34.5141 48.3388 34.7669 47.7265L48.2296 15.0862C48.3765 14.727 48.1128 14.3351 47.7261 14.3351H40.7975ZM26.8305 45.1107C22.821 35.1023 18.7563 25.1156 14.8247 15.0762C14.701 14.7528 14.9425 14.3394 15.3281 14.3349C17.8215 14.3249 20.315 14.3229 22.8084 14.3349C23.0256 14.338 23.2315 14.4804 23.3116 14.6859L31.0244 35.1359L30.3155 36.9841L22.2696 15.6502H16.4707L27.7124 43.7713L27.3334 44.7596C27.2765 44.9038 27.143 45.2248 26.8305 45.1107Z"></path></g></svg>